<svg id="Calque_1" data-name="Calque 1" xmlns="http://www.w3.org/2000/svg" viewBox="0 0 248.88 113.99"><defs><style>.cls-1{fill:#fff;}</style></defs><title>logo-accuracy_blanc</title><path class="cls-1" d="M84.48,219.41c.8.22,1.61.4,2.4.66C94,222.43,98.07,227.6,100,234.6a55.62,55.62,0,0,1,1,6.11H63.66a15.94,15.94,0,0,1,.7-6.11c2-7,6-12.17,13.16-14.53.79-.26,1.6-.44,2.4-.66Z" transform="translate(-60.24 -219.41)"/><path class="cls-1" d="M60.24,318.53c3.6-.28,5.35-2.72,6.56-5.7,4.82-11.87,9.59-23.76,14.4-35.64.15-.38.36-.9.68-1,.7-.29,1.11.1,1.39.83,2,5.1,4,10.18,6,15.27,2.69,6.87,5.36,13.76,8.11,20.61a17.14,17.14,0,0,0,2.08,3.48,4.84,4.84,0,0,0,3.4,2c.31,0,.59.33.88.5l-.15.31H87.21l-.14-.33a4.32,4.32,0,0,1,.91-.46c.78-.19,1.59-.22,2.35-.46a3,3,0,0,0,2.23-3.8,13.91,13.91,0,0,0-.63-2.18c-1.09-2.83-2.23-5.64-3.31-8.47a1.1,1.1,0,0,0-1.22-.84c-4.76,0-9.52,0-14.28,0a1.4,1.4,0,0,0-1.1.58c-1.23,3.2-2.52,6.39-3.51,9.67s.39,4.91,3.64,5.36c.43.06.88.05,1.31.15a2.44,2.44,0,0,1,.68.38l-.1.42H60.24Zm20.11-36.09c-2.66,6.6-5.17,12.85-7.72,19.19H87.89Z" transform="translate(-60.24 -219.41)"/><path class="cls-1" d="M309.12,293.81a4.46,4.46,0,0,0-4.29,3.09c-1.58,3.71-3.09,7.45-4.59,11.19-2.34,5.85-4.61,11.73-7,17.57a46.45,46.45,0,0,1-2.81,5.54,4,4,0,0,1-4,2.18,2.18,2.18,0,0,1-2.11-2.17,2,2,0,0,1,2.13-2.1c4.17-.21,4.9-.76,6.34-4.73a10.83,10.83,0,0,0-.21-8.69c-2.77-5.93-5.29-12-7.91-18-.89-2-2.1-3.69-4.55-3.93-.09,0-.16-.13-.39-.34h13.17l.05.26-1.75.27c-1.88.29-2.5,1.14-2,3a22.7,22.7,0,0,0,1.09,3.16c1.87,4.45,3.77,8.89,5.66,13.34.15.35.34.69.61,1.23,1.4-3.57,2.76-6.93,4.05-10.32.9-2.38,1.83-4.77,2.53-7.22.61-2.1-.07-2.9-2.27-3.24-.43-.06-.85-.14-1.27-.21v-.39h9.53Z" transform="translate(-60.24 -219.41)"/><path class="cls-1" d="M99.65,245.54C93.75,254.28,88,262.8,82.2,271.42L64.76,245.54Z" transform="translate(-60.24 -219.41)"/><path class="cls-1" d="M165.44,293.74l7.66-1.12c0,.82-.11,1.67-.11,2.53,0,5.6.1,11.2,0,16.79-.11,5.26,3.21,6.68,7,6.76,4.54.1,7.37-2.51,7.52-7.05s.08-9.11,0-13.67c0-2.48-.74-3.23-3.17-3.71a1,1,0,0,1-.66-.5l7.58-1.11c0,6.53,0,13.08,0,19.62a14.59,14.59,0,0,0,.55,3.65,3.19,3.19,0,0,0,2.68,2.44,3,3,0,0,1,.61.27l0,.38-7.57,1,.32-4.25c-.2.11-.36.15-.44.26-2.66,3.72-6.52,4.29-10.67,4a11.71,11.71,0,0,1-2.8-.57c-3.35-1.08-4.68-2.87-4.72-6.35,0-4.4,0-8.8,0-13.2a19.09,19.09,0,0,0-.1-2.51c-.28-2.15-.86-2.73-3-3.18-.28-.07-.55-.19-.83-.28Z" transform="translate(-60.24 -219.41)"/><path class="cls-1" d="M249.12,316.88a3.63,3.63,0,0,1-3.44,3.26c-2.83.41-4.62-.58-6.26-3.55-.21.19-.43.35-.61.54-3,3.23-6.61,3.64-10.54,2.33a6,6,0,0,1-4.34-5.59c-.24-3,.91-5.3,3.74-6.43,2.06-.82,4.26-1.31,6.39-1.95.27-.08.54-.14.82-.2,5.17-1.06,5.57-4.59,4-9.14-1-3-5.86-3.15-7.45-1.74a5.21,5.21,0,0,0-1.16,2c-.3.74-.36,1.57-.66,2.3a2.28,2.28,0,0,1-2.73,1.39,2,2,0,0,1-1.64-2.52,5.92,5.92,0,0,1,1.69-2.89c3.11-2.6,10.56-2.79,14-.58a4.89,4.89,0,0,1,2.41,4.4c0,5.23,0,10.47.06,15.71a18.9,18.9,0,0,0,.16,2.38,2.52,2.52,0,0,0,4.53,1.39C248.45,317.65,248.78,317.26,249.12,316.88Zm-9.45-12.56c-2.33,1-4.57,1.92-6.76,2.93a12.46,12.46,0,0,0-3.31,1.86,6.11,6.11,0,0,0-1.81,3,5.71,5.71,0,0,0,3.61,6.65,6,6,0,0,0,7.18-3.05,5.69,5.69,0,0,0,.4-.87C240.16,311.31,239.47,307.72,239.67,304.32Z" transform="translate(-60.24 -219.41)"/><path class="cls-1" d="M159.81,312.78a9,9,0,0,1-6,6.87c-5.69,2.14-15,.27-17.12-9-1.68-7.19,1.79-14.62,8.11-17.16a13.09,13.09,0,0,1,10.48.13,5.68,5.68,0,0,1,3.15,2.81,2.42,2.42,0,0,1-1,3.31,2.39,2.39,0,0,1-3.22-1.22,15.89,15.89,0,0,1-.82-2.25c-.72-2.17-2-2.94-4.31-2.6a8.22,8.22,0,0,0-5.79,3.7A16,16,0,0,0,141.58,313a9.4,9.4,0,0,0,11.23,5.75,8.56,8.56,0,0,0,5.91-5.18,10.72,10.72,0,0,1,.7-1.1Z" transform="translate(-60.24 -219.41)"/><path class="cls-1" d="M129.51,312.77a9.93,9.93,0,0,1-9.65,7.64c-8.73.35-15-5.91-13.63-15.77.9-6.41,4.92-10.71,10.73-11.88a11.92,11.92,0,0,1,8.6,1.19,7.86,7.86,0,0,1,2.56,2.57,2.24,2.24,0,0,1-.91,3.19,2.41,2.41,0,0,1-3.26-1.13,14.26,14.26,0,0,1-.78-2.13c-.74-2.35-2-3.14-4.43-2.77a8.17,8.17,0,0,0-5.69,3.64,16,16,0,0,0-1.64,16A9.38,9.38,0,0,0,123,318.59c2.71-.8,4.32-2.74,5.47-5.19a4.61,4.61,0,0,1,.69-.92Z" transform="translate(-60.24 -219.41)"/><path class="cls-1" d="M277.13,312.76c-.83,4.31-4.7,7.43-9.5,7.65-9,.41-15-6.05-13.81-15.4.74-5.92,3.82-10.21,9.73-12a12.05,12.05,0,0,1,9.53.85,8,8,0,0,1,2.63,2.51,2.29,2.29,0,0,1-.84,3.31,2.41,2.41,0,0,1-3.32-1.21,23.71,23.71,0,0,1-.83-2.37,3.38,3.38,0,0,0-4.07-2.49,8.24,8.24,0,0,0-5.94,3.67A16.05,16.05,0,0,0,258.94,313a9.36,9.36,0,0,0,11.14,5.72c2.94-.64,4.77-2.58,6-5.22a8.24,8.24,0,0,1,.72-1.06Z" transform="translate(-60.24 -219.41)"/><path class="cls-1" d="M200.75,293.78l7.48-1.13c-.07,1.53-.14,3.13-.19,4.34,1.05-.88,2.22-1.93,3.46-2.89a7.29,7.29,0,0,1,6.82-1.14,4.77,4.77,0,0,1,2.13,1.6,2.25,2.25,0,0,1-.33,2.95,2.39,2.39,0,0,1-3.09,0,7.84,7.84,0,0,1-1.25-1.59c-1.14-1.71-2.74-2.09-4.2-.64a10.47,10.47,0,0,0-2.47,3.85,17.16,17.16,0,0,0-.81,5.05c-.12,3.19-.05,6.39,0,9.59,0,3.79.3,4.14,3.78,5.38H200.83l-.05-.14a5.25,5.25,0,0,1,.67-.22c1.83-.39,2.54-1.09,2.79-2.94a22.74,22.74,0,0,0,.25-3c0-4.47,0-8.95,0-13.42,0-.52,0-1,0-1.56-.19-2.48-.66-3-3.06-3.56a6.65,6.65,0,0,1-.75-.26Z" transform="translate(-60.24 -219.41)"/></svg>